<mxfile host="65bd71144e">
    <diagram id="G6v46euD-mHrfhC04Wgl" name="Page-1">
        <mxGraphModel dx="1020" dy="473" grid="1" gridSize="10" guides="1" tooltips="1" connect="1" arrows="1" fold="1" page="1" pageScale="1" pageWidth="827" pageHeight="1169" math="0" shadow="0">
            <root>
                <mxCell id="0"/>
                <mxCell id="1" parent="0"/>
                <mxCell id="66" value="" style="edgeStyle=none;html=1;entryX=0.147;entryY=0.02;entryDx=0;entryDy=0;entryPerimeter=0;" parent="1" source="3" target="65" edge="1">
                    <mxGeometry relative="1" as="geometry"/>
                </mxCell>
                <mxCell id="3" value="&amp;lt;dropdown for week&amp;gt; &amp;lt;drowdown for day&amp;gt;" style="rounded=1;whiteSpace=wrap;html=1;" parent="1" vertex="1">
                    <mxGeometry x="170" y="70" width="140" height="40" as="geometry"/>
                </mxCell>
                <mxCell id="70" value="" style="edgeStyle=none;html=1;fontSize=12;entryX=0.794;entryY=-0.008;entryDx=0;entryDy=0;entryPerimeter=0;" parent="1" source="4" target="65" edge="1">
                    <mxGeometry relative="1" as="geometry"/>
                </mxCell>
                <mxCell id="4" value="Github Repo" style="rounded=1;whiteSpace=wrap;html=1;" parent="1" vertex="1">
                    <mxGeometry x="450" y="70" width="200" height="40" as="geometry"/>
                </mxCell>
                <mxCell id="5" value="X" style="rounded=1;whiteSpace=wrap;html=1;" parent="1" vertex="1">
                    <mxGeometry x="12" y="250" width="26" height="30" as="geometry"/>
                </mxCell>
                <mxCell id="6" value="DoneButton" style="rounded=1;whiteSpace=wrap;html=1;" parent="1" vertex="1">
                    <mxGeometry x="641" y="250" width="80" height="30" as="geometry"/>
                </mxCell>
                <mxCell id="7" value="ProjectWeek&amp;amp;Day" style="rounded=1;whiteSpace=wrap;html=1;" parent="1" vertex="1">
                    <mxGeometry x="48" y="250" width="130" height="30" as="geometry"/>
                </mxCell>
                <mxCell id="8" value="Breakfast" style="rounded=1;whiteSpace=wrap;html=1;" parent="1" vertex="1">
                    <mxGeometry x="262" y="250" width="190" height="30" as="geometry"/>
                </mxCell>
                <mxCell id="9" value="'In Progress'" style="rounded=1;whiteSpace=wrap;html=1;" parent="1" vertex="1">
                    <mxGeometry x="729" y="250" width="90" height="30" as="geometry"/>
                </mxCell>
                <mxCell id="10" value="ProjectWeek&amp;amp;Day" style="rounded=1;whiteSpace=wrap;html=1;" parent="1" vertex="1">
                    <mxGeometry x="48" y="290" width="130" height="30" as="geometry"/>
                </mxCell>
                <mxCell id="11" value="Bus" style="rounded=1;whiteSpace=wrap;html=1;" parent="1" vertex="1">
                    <mxGeometry x="262" y="290" width="190" height="30" as="geometry"/>
                </mxCell>
                <mxCell id="12" value="'Finished'" style="rounded=1;whiteSpace=wrap;html=1;" parent="1" vertex="1">
                    <mxGeometry x="729" y="290" width="90" height="30" as="geometry"/>
                </mxCell>
                <mxCell id="13" value="ProjectWeek&amp;amp;Day" style="rounded=1;whiteSpace=wrap;html=1;" parent="1" vertex="1">
                    <mxGeometry x="48" y="330" width="130" height="30" as="geometry"/>
                </mxCell>
                <mxCell id="14" value="Content" style="rounded=1;whiteSpace=wrap;html=1;" parent="1" vertex="1">
                    <mxGeometry x="262" y="330" width="190" height="30" as="geometry"/>
                </mxCell>
                <mxCell id="15" value="Status" style="rounded=1;whiteSpace=wrap;html=1;" parent="1" vertex="1">
                    <mxGeometry x="729" y="330" width="90" height="30" as="geometry"/>
                </mxCell>
                <mxCell id="16" value="ProjectWeek&amp;amp;Day" style="rounded=1;whiteSpace=wrap;html=1;" parent="1" vertex="1">
                    <mxGeometry x="48" y="370" width="130" height="30" as="geometry"/>
                </mxCell>
                <mxCell id="17" value="Project Name &amp;amp; github repo" style="rounded=1;whiteSpace=wrap;html=1;" parent="1" vertex="1">
                    <mxGeometry x="188" y="370" width="443" height="30" as="geometry"/>
                </mxCell>
                <mxCell id="18" value="Status" style="rounded=1;whiteSpace=wrap;html=1;" parent="1" vertex="1">
                    <mxGeometry x="729" y="370" width="90" height="30" as="geometry"/>
                </mxCell>
                <mxCell id="19" value="ProjectWeek&amp;amp;Day" style="rounded=1;whiteSpace=wrap;html=1;" parent="1" vertex="1">
                    <mxGeometry x="48" y="410" width="130" height="30" as="geometry"/>
                </mxCell>
                <mxCell id="20" value="Project Name &amp;amp; github repo" style="rounded=1;whiteSpace=wrap;html=1;" parent="1" vertex="1">
                    <mxGeometry x="188" y="410" width="443" height="30" as="geometry"/>
                </mxCell>
                <mxCell id="21" value="Status" style="rounded=1;whiteSpace=wrap;html=1;" parent="1" vertex="1">
                    <mxGeometry x="729" y="410" width="90" height="30" as="geometry"/>
                </mxCell>
                <mxCell id="22" value="DoneButton" style="rounded=1;whiteSpace=wrap;html=1;" parent="1" vertex="1">
                    <mxGeometry x="641" y="290" width="80" height="30" as="geometry"/>
                </mxCell>
                <mxCell id="23" value="DoneButton" style="rounded=1;whiteSpace=wrap;html=1;" parent="1" vertex="1">
                    <mxGeometry x="641" y="330" width="80" height="30" as="geometry"/>
                </mxCell>
                <mxCell id="24" value="DoneButton" style="rounded=1;whiteSpace=wrap;html=1;" parent="1" vertex="1">
                    <mxGeometry x="641" y="370" width="80" height="30" as="geometry"/>
                </mxCell>
                <mxCell id="25" value="DoneButton" style="rounded=1;whiteSpace=wrap;html=1;" parent="1" vertex="1">
                    <mxGeometry x="641" y="410" width="80" height="30" as="geometry"/>
                </mxCell>
                <mxCell id="46" value="Diplay&lt;br&gt;" style="text;html=1;strokeColor=none;fillColor=none;align=center;verticalAlign=middle;whiteSpace=wrap;rounded=0;fontSize=18;" parent="1" vertex="1">
                    <mxGeometry x="360" y="210" width="90" height="30" as="geometry"/>
                </mxCell>
                <mxCell id="64" value="" style="edgeStyle=none;html=1;" parent="1" source="47" target="63" edge="1">
                    <mxGeometry relative="1" as="geometry"/>
                </mxCell>
                <mxCell id="47" value="&lt;font style=&quot;font-size: 12px&quot;&gt;&amp;lt;checkbox&amp;gt;&lt;br&gt;Team / Personal&lt;/font&gt;" style="rounded=1;whiteSpace=wrap;html=1;fontSize=14;" parent="1" vertex="1">
                    <mxGeometry x="9" y="70" width="151" height="40" as="geometry"/>
                </mxCell>
                <mxCell id="48" value="X" style="rounded=1;whiteSpace=wrap;html=1;" parent="1" vertex="1">
                    <mxGeometry x="12" y="290" width="26" height="30" as="geometry"/>
                </mxCell>
                <mxCell id="49" value="X" style="rounded=1;whiteSpace=wrap;html=1;" parent="1" vertex="1">
                    <mxGeometry x="12" y="330" width="26" height="30" as="geometry"/>
                </mxCell>
                <mxCell id="50" value="X" style="rounded=1;whiteSpace=wrap;html=1;" parent="1" vertex="1">
                    <mxGeometry x="12" y="370" width="26" height="30" as="geometry"/>
                </mxCell>
                <mxCell id="51" value="X" style="rounded=1;whiteSpace=wrap;html=1;" parent="1" vertex="1">
                    <mxGeometry x="12" y="410" width="26" height="30" as="geometry"/>
                </mxCell>
                <mxCell id="52" value="Project Name &amp;amp; github repo" style="rounded=1;whiteSpace=wrap;html=1;" parent="1" vertex="1">
                    <mxGeometry x="188" y="250" width="443" height="30" as="geometry"/>
                </mxCell>
                <mxCell id="53" value="Project Name &amp;amp; github repo" style="rounded=1;whiteSpace=wrap;html=1;" parent="1" vertex="1">
                    <mxGeometry x="188" y="290" width="443" height="30" as="geometry"/>
                </mxCell>
                <mxCell id="54" value="Project Name &amp;amp; github repo" style="rounded=1;whiteSpace=wrap;html=1;" parent="1" vertex="1">
                    <mxGeometry x="188" y="330" width="443" height="30" as="geometry"/>
                </mxCell>
                <mxCell id="58" value="&lt;b&gt;&lt;font style=&quot;font-size: 24px&quot;&gt;Project Tracker&lt;/font&gt;&lt;/b&gt;" style="text;html=1;align=center;verticalAlign=middle;resizable=0;points=[];autosize=1;strokeColor=none;fillColor=none;fontSize=14;" parent="1" vertex="1">
                    <mxGeometry x="310" y="10" width="190" height="30" as="geometry"/>
                </mxCell>
                <mxCell id="69" value="" style="edgeStyle=none;html=1;fontSize=12;entryX=0.439;entryY=0.009;entryDx=0;entryDy=0;entryPerimeter=0;" parent="1" source="60" target="65" edge="1">
                    <mxGeometry relative="1" as="geometry">
                        <mxPoint x="380" y="150" as="targetPoint"/>
                    </mxGeometry>
                </mxCell>
                <mxCell id="60" value="&lt;font style=&quot;font-size: 12px&quot;&gt;Project Name&lt;/font&gt;" style="rounded=1;whiteSpace=wrap;html=1;fontSize=14;" parent="1" vertex="1">
                    <mxGeometry x="320" y="70" width="120" height="40" as="geometry"/>
                </mxCell>
                <mxCell id="68" value="" style="edgeStyle=none;html=1;" parent="1" source="61" target="67" edge="1">
                    <mxGeometry relative="1" as="geometry"/>
                </mxCell>
                <mxCell id="61" value="Language" style="rounded=1;whiteSpace=wrap;html=1;" parent="1" vertex="1">
                    <mxGeometry x="659" y="70" width="160" height="40" as="geometry"/>
                </mxCell>
                <mxCell id="63" value="&lt;span style=&quot;font-size: 12px&quot;&gt;Different Background Color for Project name&lt;/span&gt;" style="whiteSpace=wrap;html=1;fontSize=14;rounded=1;" parent="1" vertex="1">
                    <mxGeometry x="9" y="130" width="152" height="40" as="geometry"/>
                </mxCell>
                <mxCell id="65" value="&amp;lt;span W3D2&amp;gt;&amp;lt;span ProjectName&amp;gt;&amp;lt;span repo url or icon&amp;gt;" style="whiteSpace=wrap;html=1;rounded=1;" parent="1" vertex="1">
                    <mxGeometry x="170" y="130" width="480" height="40" as="geometry"/>
                </mxCell>
                <mxCell id="67" value="Colored tag" style="whiteSpace=wrap;html=1;rounded=1;" parent="1" vertex="1">
                    <mxGeometry x="659" y="130" width="160" height="40" as="geometry"/>
                </mxCell>
            </root>
        </mxGraphModel>
    </diagram>
</mxfile>